# xmcd CD database file
#
# Track frame offsets:
#	180
#	113621
#	133354
#	184897
#	235501
#
# Disc length: 3683 seconds
#
# Revision: 2
# Processed by: cddbd v1.4b41PL1 Copyright (c) Steve Scherf et al.
# Submitted via: Feurio! 1.60 - http://www.feurio.com
#
DISCID=3d0e6105,3e0e6105
DTITLE=Michael Wetzel - Horizons
DYEAR=1900
DGENRE=
TTITLE0=Swimming in twilight
TTITLE1=Horizons
TTITLE2=Stormfront
TTITLE3=Red Earth
TTITLE4=Crown of Love
EXTD=
EXTT0=
EXTT1=
EXTT2=
EXTT3=
EXTT4=
PLAYORDER=
